<svg width="48" height="48" viewBox="0 0 48 48" fill="none" xmlns="http://www.w3.org/2000/svg">
<rect x="4" y="4" width="40" height="40" rx="20" fill="white"/>
<path d="M28.6023 23.688V23.832C30.3303 24.36 31.5783 25.584 31.5783 27.912C31.5783 31.056 29.3703 33 25.4343 33H17.1783V15.264H24.8343C28.5783 15.264 30.7143 16.92 30.7143 20.136C30.7143 21.984 29.8503 23.184 28.6023 23.688ZM24.3303 19.032H21.3543V22.128H24.3303C25.6503 22.128 26.4423 21.576 26.4423 20.496C26.4423 19.488 25.6743 19.032 24.3303 19.032ZM21.3543 29.232H25.0023C26.2743 29.232 27.3063 28.68 27.3063 27.528C27.3063 26.448 26.2743 25.896 24.9783 25.896H21.3543V29.232Z" fill="black"/>
</svg>
