<svg width="48" height="48" viewBox="0 0 48 48" fill="none" xmlns="http://www.w3.org/2000/svg">
<path d="M18 6C18 4.89543 18.8954 4 20 4H28C29.1046 4 30 4.89543 30 6V14.1716C30 14.702 29.7893 15.2107 29.4142 15.5858L25.4142 19.5858C24.6332 20.3668 23.3668 20.3668 22.5858 19.5858L18.5858 15.5858C18.2107 15.2107 18 14.702 18 14.1716L18 6Z" fill="white"/>
<path d="M18 33.8284C18 33.298 18.2107 32.7893 18.5858 32.4142L22.5858 28.4142C23.3668 27.6332 24.6332 27.6332 25.4142 28.4142L29.4142 32.4142C29.7893 32.7893 30 33.298 30 33.8284V42C30 43.1046 29.1046 44 28 44H20C18.8954 44 18 43.1046 18 42L18 33.8284Z" fill="white"/>
<path d="M32.4142 18.5858C32.7893 18.2107 33.298 18 33.8284 18H42C43.1046 18 44 18.8954 44 20V28C44 29.1046 43.1046 30 42 30H33.8284C33.298 30 32.7893 29.7893 32.4142 29.4142L28.4142 25.4142C27.6332 24.6332 27.6332 23.3668 28.4142 22.5858L32.4142 18.5858Z" fill="white"/>
<path d="M4 20C4 18.8954 4.89543 18 6 18H14.1716C14.702 18 15.2107 18.2107 15.5858 18.5858L19.5858 22.5858C20.3668 23.3668 20.3668 24.6332 19.5858 25.4142L15.5858 29.4142C15.2107 29.7893 14.702 30 14.1716 30H6C4.89543 30 4 29.1046 4 28V20Z" fill="white"/>
</svg>
