<svg width="48" height="48" viewBox="0 0 48 48" fill="none" xmlns="http://www.w3.org/2000/svg">
<path d="M4 16.8284C4 15.0174 4.71942 13.2806 6 12C11.1223 6.87768 18.0697 4 25.3137 4H37.0454C40.8863 4 44 7.11367 44 10.9546V36C44 40.4183 40.4183 44 36 44H12C7.58172 44 4 40.4183 4 36V16.8284Z" fill="white"/>
<path d="M14.3113 15.264V29.232H22.4473V33H10.1353V15.264H14.3113ZM35.6453 23.688V23.832C37.3733 24.36 38.6213 25.584 38.6213 27.912C38.6213 31.056 36.4133 33 32.4773 33H24.2213V15.264H31.8773C35.6213 15.264 37.7573 16.92 37.7573 20.136C37.7573 21.984 36.8932 23.184 35.6453 23.688ZM31.3733 19.032H28.3973V22.128H31.3733C32.6933 22.128 33.4853 21.576 33.4853 20.496C33.4853 19.488 32.7173 19.032 31.3733 19.032ZM28.3973 29.232H32.0453C33.3173 29.232 34.3493 28.68 34.3493 27.528C34.3493 26.448 33.3173 25.896 32.0213 25.896H28.3973V29.232Z" fill="black"/>
</svg>
