<svg width="48" height="48" viewBox="0 0 48 48" fill="none" xmlns="http://www.w3.org/2000/svg">
<path d="M44 16.8284C44 15.0174 43.2806 13.2806 42 12C36.8777 6.87768 29.9303 4 22.6863 4H10.9546C7.11367 4 4 7.11367 4 10.9546V36C4 40.4183 7.58172 44 12 44H36C40.4183 44 44 40.4183 44 36V16.8284Z" fill="white"/>
<path d="M23.6721 33H18.7761L15.6801 27.048H13.2801V33H9.10406V15.264H16.2561C20.2641 15.264 22.7601 17.448 22.7601 21.144C22.7601 23.616 21.6801 25.44 19.8081 26.352L23.6721 33ZM15.6561 19.032H13.2801V23.256H15.6561C17.3841 23.256 18.4881 22.584 18.4881 21.144C18.4881 19.704 17.3841 19.032 15.6561 19.032ZM36.6765 23.688V23.832C38.4045 24.36 39.6525 25.584 39.6525 27.912C39.6525 31.056 37.4445 33 33.5085 33H25.2525V15.264H32.9085C36.6525 15.264 38.7885 16.92 38.7885 20.136C38.7885 21.984 37.9245 23.184 36.6765 23.688ZM32.4045 19.032H29.4285V22.128H32.4045C33.7245 22.128 34.5165 21.576 34.5165 20.496C34.5165 19.488 33.7485 19.032 32.4045 19.032ZM29.4285 29.232H33.0765C34.3485 29.232 35.3805 28.68 35.3805 27.528C35.3805 26.448 34.3485 25.896 33.0525 25.896H29.4285V29.232Z" fill="black"/>
</svg>
