<svg width="11" height="12" viewBox="0 0 11 12" fill="none" xmlns="http://www.w3.org/2000/svg">
<g clip-path="url(#clip0_4700_153)">
<path d="M9.42857 1.875C9.64464 1.875 9.82143 2.04375 9.82143 2.25V9.75C9.82143 9.95625 9.64464 10.125 9.42857 10.125H1.57143C1.35536 10.125 1.17857 9.95625 1.17857 9.75V2.25C1.17857 2.04375 1.35536 1.875 1.57143 1.875H9.42857ZM1.57143 0.75C0.704688 0.75 0 1.42266 0 2.25V9.75C0 10.5773 0.704688 11.25 1.57143 11.25H9.42857C10.2953 11.25 11 10.5773 11 9.75V2.25C11 1.42266 10.2953 0.75 9.42857 0.75H1.57143ZM7.46429 4.125V6H5.5V7.875H3.53571V9.75H5.5V7.875H7.46429V9.75H9.42857V7.875H7.46429V6H9.42857V4.125H7.46429Z" fill="white"/>
</g>
<defs>
<clipPath id="clip0_4700_153">
<rect width="11" height="12" fill="white"/>
</clipPath>
</defs>
</svg>
